<svg width="46" height="46" viewBox="0 0 56 56" fill="none" xmlns="http://www.w3.org/2000/svg">
    <g>
    <path d="M41.496 28.784L41.636 15.4L30.856 23.352C29.904 23.968 29.12 24.836 28.56 25.928C26.852 29.288 28.168 33.404 31.556 35.112C34.944 36.82 39.032 35.504 40.74 32.116C41.3 31.08 41.524 29.904 41.496 28.784Z" fill="#BBE5F9" stroke="#0B4566" strokeMiterlimit="10" strokeLinejoin="round"></path>
    <path d="M37.492 29.4L37.744 4.76001L17.92 19.432C16.184 20.58 14.7 22.176 13.692 24.192C10.528 30.38 12.992 37.968 19.18 41.132C25.368 44.296 32.956 41.832 36.12 35.644C37.128 33.628 37.576 31.5 37.492 29.4Z" fill="#DCF2FD" stroke="#0B4566" strokeMiterlimit="10" strokeLinejoin="round"></path>
    <path d="M47.6279 36.204L47.7399 23.912L37.8839 31.22C37.0159 31.808 36.2879 32.592 35.7839 33.6C34.2159 36.68 35.4479 40.46 38.5279 42.028C41.6079 43.596 45.3879 42.364 46.9559 39.284C47.4599 38.304 47.6559 37.24 47.6279 36.204Z" fill="#BBE5F9" stroke="#0B4566" strokeMiterlimit="10" strokeLinejoin="round"></path>
    <path d="M41.272 43.372L41.412 28.532L29.484 37.352C28.448 38.052 27.552 39.004 26.936 40.208C25.032 43.932 26.516 48.496 30.24 50.4C33.964 52.304 38.528 50.82 40.432 47.096C41.048 45.92 41.3 44.632 41.272 43.372Z" fill="#DCF2FD" stroke="#0B4566" strokeMiterlimit="10" strokeLinejoin="round"></path>
    <path d="M23.3799 29.96L23.5199 15.288L11.732 24.024C10.696 24.724 9.82795 25.676 9.21195 26.852C7.33595 30.548 8.79195 35.056 12.488 36.932C16.184 38.808 20.6919 37.352 22.5679 33.656C23.1839 32.48 23.4359 31.192 23.3799 29.96Z" fill="#BBE5F9" stroke="#0B4566" strokeMiterlimit="10" strokeLinejoin="round"></path>
    <path opacity="0.3" d="M33.068 40.852L33.264 21.728L17.892 33.124C16.548 34.02 15.4 35.252 14.616 36.82C12.152 41.636 14.084 47.516 18.872 49.952C23.688 52.416 29.568 50.484 32.004 45.696C32.788 44.128 33.124 42.476 33.068 40.852Z" fill="#00A4EC"></path>
    <path d="M32.956 40.992L33.152 21.672L17.64 33.18C16.268 34.076 15.12 35.336 14.336 36.904C11.872 41.748 13.776 47.684 18.648 50.176C23.52 52.668 29.428 50.736 31.92 45.864C32.704 44.296 33.04 42.616 32.956 40.992Z" fill="#DCF2FD" stroke="#0B4566" strokeMiterlimit="10" strokeLinejoin="round"></path>
    </g>
</svg>